StoneCold420 presents a High Quality 720p scene release for your viewing enjoyment. 


Thanks to IMMERSE for the source




Star.Wars.The.Clone.Wars.S04E15.720p.HDTV.x264-IMMERSE


S04E15 - Deception 

Obi-Wan fakes his own death and goes undercover in a Republic prison, in order to gather information on a plot to kidnap Chancellor Palpatine from a convict named Morallo Eval. While there, he learns that another prisoner, notorious bounty hunter Cad Bane, is also involved. Anakin seeks vengance over the death of his former master. 



First Aired and Captured on: 01/20/2012 on Cartoon Network HD channel


Complete name  Star.Wars.The.Clone.Wars.S04E15.720p.HDTV.x264-IMMERSE.mkv
Format                         : Matroska
Format version                 : Version 2
File size                      : 447 MiB
Duration                       : 22mn 38s
Overall bit rate               : 2 763 Kbps
Writing application            : x264.exe
Writing library                : mkv2rls x264-tv version built on 2011. febr. 17

Video
ID                             : 1
Format                         : AVC
Format/Info                    : Advanced Video Codec
Format profile                 : High@L4.1
Format settings, CABAC         : Yes
Format settings, ReFrames      : 5 frames
Codec ID                       : V_MPEG4/ISO/AVC
Duration                       : 22mn 38s
Bit rate                       : 2 260 Kbps
Width                          : 1 280 pixels
Height                         : 720 pixels
Display aspect ratio           : 16:9
Frame rate                     : 23.976 fps
Color space                    : YUV
Chroma subsampling             : 4:2:0
Bit depth                      : 8 bits
Scan type                      : Progressive
Bits/(Pixel*Frame)             : 0.102
Stream size                    : 366 MiB (82%)
Writing library                : x264 core 120 r2146 bcd41db
Encoding settings              : cabac=1 / ref=5 / deblock=1:0:0 / analyse=0x3:0x113 / me=umh / subme=8 / psy=1 / psy_rd=1.00:0.00 / mixed_ref=1 / me_range=16 / chroma_me=1 / trellis=1 / 8x8dct=1 / cqm=0 / deadzone=21,11 / fast_pskip=1 / chroma_qp_offset=-2 / threads=12 / sliced_threads=0 / nr=0 / decimate=1 / interlaced=0 / bluray_compat=0 / constrained_intra=0 / bframes=3 / b_pyramid=2 / b_adapt=2 / b_bias=0 / direct=3 / weightb=1 / open_gop=0 / weightp=2 / keyint=250 / keyint_min=23 / scenecut=40 / intra_refresh=0 / rc_lookahead=50 / rc=crf / mbtree=1 / crf=19.0 / qcomp=0.60 / qpmin=0 / qpmax=69 / qpstep=4 / ip_ratio=1.40 / aq=1:1.00

Language                       : English
Default                        : Yes
Forced                         : No

Audio
ID                             : 2
Format                         : AC-3
Format/Info                    : Audio Coding 3
Mode extension                 : CM (complete main)
Codec ID                       : A_AC3
Duration                       : 22mn 38s
Bit rate mode                  : Constant
Bit rate                       : 448 Kbps
Channel(s)                     : 6 channels
Channel positions              : Front: L C R, Side: L R, LFE
Sampling rate                  : 48.0 KHz
Bit depth                      : 16 bits
Compression mode               : Lossy
Stream size                    : 72.5 MiB (16%)
Language                       : English
Default                        : Yes
Forced                         : No
 


This is The Clone Wars Season 4 episode 15 on the Cartoon Network HDTV channel.


StoneCold420
SmackDownHotel
January 20, 2012


For more information on this Star Wars The Clone Wars HDTV series visit:   http://theclonewars.cartoonnetwork.com


